<svg width="25" height="25" viewBox="0 0 25 25" fill="none" xmlns="http://www.w3.org/2000/svg">
<path d="M12.3406 3.75177C9.0307 3.78113 6.36467 6.49488 6.39403 9.80475L6.41966 12.6946C6.42507 13.3046 6.17333 14.2369 5.86796 14.7596L4.73495 16.6797C4.03544 17.866 4.53704 19.1716 5.84089 19.6C10.1635 21.0018 14.8133 20.9605 19.1104 19.4823C20.3168 19.0716 20.8341 17.637 20.1643 16.5429L18.9974 14.6432C18.6928 14.1258 18.4246 13.1982 18.4192 12.5882L18.3936 9.69831C18.3643 6.39844 15.6404 3.7225 12.3406 3.75177Z" stroke="#787486" stroke-width="1.5" stroke-miterlimit="10" stroke-linecap="round"/>
<path d="M14.1935 4.02535C13.8827 3.9381 13.5621 3.87094 13.2317 3.83387C12.2707 3.72239 11.3513 3.80055 10.4936 4.05817C10.777 3.31562 11.4924 2.78926 12.3323 2.78181C13.1723 2.77436 13.8969 3.28795 14.1935 4.02535Z" stroke="#787486" stroke-width="1.5" stroke-miterlimit="10" stroke-linecap="round" stroke-linejoin="round"/>
<path d="M15.4837 19.8745C15.4983 21.5245 14.1603 22.8864 12.5104 22.901C11.6904 22.9083 10.9274 22.575 10.3827 22.0399C9.83789 21.5047 9.49116 20.7477 9.48389 19.9277" stroke="#787486" stroke-width="1.5" stroke-miterlimit="10"/>
<circle cx="18.3302" cy="4.78868" r="3" transform="rotate(-0.508226 18.3302 4.78868)" fill="#D8727D"/>
</svg>
