<svg width="515" height="386" viewBox="0 0 515 386" fill="none" xmlns="http://www.w3.org/2000/svg">
<g opacity="0.76">
<path d="M283.27 356.646C229.806 352.291 164.526 343.483 123.789 329.31C90.293 317.657 63.2704 292.949 46.1204 266.463C28.9703 239.977 29.0123 204.677 52.5762 181.806C72.8573 162.122 108.633 151.784 116.474 126.752C119.681 116.514 117.306 105.733 117.042 95.1611C116.142 59.1079 142.461 23.5421 181.699 7.78503C206.407 -2.13625 238.075 -3.78777 259.902 9.99698C273.686 18.7026 281.899 32.3317 295.486 41.2458C312.598 52.4734 335.569 54.7003 356.513 59.843C378.148 65.1549 399.017 74.3154 413.307 88.7567C427.596 103.197 434.362 123.464 427.102 141.129C424.028 148.607 418.556 156.495 421.985 163.867C423.48 167.081 426.493 169.617 429.325 172.142C448.25 189.015 462.456 209.931 467.11 232.616C471.764 255.301 466.278 279.744 449.708 298.231C438.338 310.915 422.413 320.331 405.767 328.067C368.434 345.419 326.067 355.303 283.27 356.646Z" fill="#EFEFFF"/>
</g>
<path opacity="0.48" d="M490.807 155.626C490.807 151.282 487.285 147.759 482.941 147.759C481.646 147.759 480.426 148.079 479.348 148.632L389.356 54.7125C389.85 53.7581 390.154 52.6914 390.154 51.5435C390.154 47.7084 387.046 44.6003 383.211 44.6003C380.167 44.6003 377.608 46.5727 376.671 49.299H346.954C343.51 46.9896 329.776 39.352 309.422 48.1389C287.739 57.4984 269.728 50.1627 251.776 56.2313C249.311 57.0652 248.492 60.1571 250.187 62.1308L275.899 92.0814C271.33 94.4897 268.205 99.2818 268.205 104.794C268.205 112.717 274.651 119.162 282.574 119.162C287.308 119.162 291.503 116.85 294.123 113.306L320.608 144.156C321.243 144.895 322.077 145.314 322.943 145.463C323.314 145.527 323.687 145.555 324.058 145.515C325.296 145.379 326.464 144.671 327.093 143.43C330.276 137.152 331.649 130.585 332.779 123.78C332.874 123.213 332.966 122.644 333.056 122.074C333.423 119.792 333.777 117.485 334.176 115.154C334.475 113.405 334.8 111.642 335.176 109.868C336.678 102.768 338.979 95.463 343.649 88.0054C343.652 88.0014 343.653 87.9987 343.656 87.9946C344.096 87.292 344.506 86.5962 344.899 85.9058C345.029 85.677 345.146 85.451 345.272 85.2236C345.528 84.7579 345.779 84.2949 346.014 83.836C346.148 83.5748 346.274 83.3162 346.401 83.0563C346.61 82.6326 346.811 82.2116 347.002 81.7919C347.123 81.5293 347.239 81.268 347.353 81.0081C347.536 80.5885 347.709 80.1715 347.877 79.7573C347.974 79.515 348.074 79.2713 348.168 79.0304C348.341 78.5782 348.502 78.1315 348.657 77.6861C348.724 77.4926 348.797 77.2976 348.861 77.1054C349.072 76.4705 349.27 75.841 349.446 75.2224C349.451 75.2035 349.455 75.1859 349.461 75.1683C349.631 74.5659 349.783 73.973 349.921 73.3868C349.963 73.2081 349.998 73.0348 350.037 72.8575C350.132 72.4311 350.223 72.0074 350.303 71.5891C350.341 71.3928 350.373 71.1979 350.407 71.0043C350.476 70.6076 350.54 70.2151 350.595 69.8266C350.622 69.6397 350.648 69.4543 350.671 69.2702C350.724 68.8668 350.767 68.4701 350.806 68.0762C350.821 67.9219 350.839 67.7662 350.851 67.6133C350.891 67.1422 350.921 66.6792 350.944 66.223C350.947 66.1594 350.952 66.093 350.955 66.0294C351.002 64.9397 351.001 63.8946 350.961 62.897C350.959 62.8577 350.956 62.8211 350.955 62.7819C350.935 62.3284 350.908 61.8871 350.873 61.4539C350.867 61.3903 350.862 61.328 350.856 61.2644C350.82 60.8474 350.778 60.44 350.73 60.042C350.725 59.996 350.72 59.9499 350.714 59.9039C350.408 57.4605 349.894 55.3974 349.374 53.7865H376.674C377.611 56.5129 380.169 58.4852 383.214 58.4852C384.258 58.4852 385.238 58.2389 386.126 57.826L476.11 151.736C475.456 152.884 475.076 154.21 475.076 155.624C475.076 158.57 476.698 161.134 479.095 162.482L437.554 346.443H423.639C422.191 346.443 421.016 347.618 421.016 349.067V349.619C421.016 351.068 422.191 352.243 423.639 352.243H436.244L435.57 355.229L439.946 356.217L440.844 352.243H456.314C457.762 352.243 458.937 351.068 458.937 349.619V349.067C458.937 347.618 457.762 346.443 456.314 346.443H442.154L483.472 163.465C487.568 163.191 490.807 159.791 490.807 155.626ZM282.577 117.81C275.4 117.81 269.561 111.971 269.561 104.795C269.561 99.6906 272.523 95.2748 276.813 93.1441L285.466 103.224L285.575 103.351L293.222 112.258C290.866 115.609 286.976 117.81 282.577 117.81Z" fill="#E3E3FF"/>
<path d="M242.609 113.39C227.787 129.871 214.288 147.524 202.241 166.129C190.127 184.837 179.497 204.506 170.49 224.893C165.46 236.282 160.948 247.894 156.944 259.682C156.545 260.856 158.436 261.244 158.831 260.081C165.95 239.122 174.753 218.737 185.097 199.166C195.375 179.719 207.173 161.078 220.369 143.48C227.831 133.529 235.737 123.916 244.053 114.669C244.882 113.747 243.441 112.464 242.609 113.39Z" fill="#E3E3FF"/>
<path d="M238.741 119.285C236.527 111.871 236.972 103.558 240.63 96.7409C244.288 89.9223 251.297 84.8296 259.005 84.1501C266.713 83.4705 274.808 87.5682 278.247 94.4991C278.68 95.3723 279.047 96.3091 279.042 97.2837C279.038 98.2367 278.681 99.1518 278.256 100.003C274.895 106.733 267.495 110.339 260.411 112.865C253.954 115.167 245.473 117.993 238.741 119.285Z" fill="#E3E3FF"/>
<path d="M218.93 143.741C222.856 137.074 229.251 131.744 236.735 129.785C244.221 127.826 252.722 129.495 258.465 134.681C264.207 139.867 266.714 148.586 263.974 155.823C263.629 156.734 263.192 157.641 262.476 158.302C261.776 158.948 260.861 159.309 259.947 159.577C252.729 161.693 245.052 158.726 238.38 155.253C232.299 152.087 224.458 147.794 218.93 143.741Z" fill="#E3E3FF"/>
<path d="M174.351 215.459C177.768 209.656 183.333 205.017 189.848 203.311C196.364 201.605 203.763 203.059 208.761 207.573C213.759 212.086 215.941 219.676 213.556 225.973C213.255 226.767 212.875 227.556 212.252 228.13C211.643 228.692 210.847 229.006 210.051 229.24C203.768 231.081 197.087 228.498 191.279 225.477C185.988 222.723 179.164 218.988 174.351 215.459Z" fill="#E3E3FF"/>
<path d="M219.691 144.91C220.29 136.408 211.084 127.352 207.563 123.294C204.042 119.235 201.177 114.093 201.758 108.751C202.153 105.115 204.101 101.832 206.304 98.9109C208.642 95.8109 211.79 92.7461 215.673 92.7244C220.078 92.6987 223.504 96.6217 225.353 100.621C228.586 107.612 228.946 115.683 227.548 123.257C226.148 130.831 223.086 137.996 219.691 144.91Z" fill="#E3E3FF"/>
<path d="M193.84 181.797C194.44 173.295 185.234 164.239 181.713 160.181C178.192 156.122 175.327 150.98 175.908 145.638C176.303 142.002 178.251 138.719 180.454 135.798C182.791 132.698 185.94 129.633 189.823 129.61C194.228 129.584 197.654 133.507 199.503 137.506C202.736 144.498 203.096 152.569 201.697 160.143C200.299 167.72 197.237 174.883 193.84 181.797Z" fill="#E3E3FF"/>
<path d="M172.946 221.317C173.546 212.815 164.339 203.759 160.818 199.701C157.297 195.642 154.433 190.5 155.013 185.158C155.409 181.522 157.357 178.239 159.559 175.318C161.897 172.218 165.046 169.153 168.928 169.13C173.333 169.104 176.759 173.027 178.608 177.026C181.841 184.018 182.201 192.089 180.803 199.663C179.404 207.24 176.342 214.403 172.946 221.317Z" fill="#E3E3FF"/>
<path d="M237.66 176.219C237.332 172.573 234.204 169.856 231.105 167.905C228.187 166.067 224.948 164.495 221.499 164.411C216.434 164.287 211.826 167.385 208.291 171.014C205.195 174.193 198.841 181.772 191.913 183.678C191.868 184.174 191.784 184.66 191.674 185.138C197.583 187.332 203.644 189.172 209.905 189.792C217.134 190.506 224.69 189.53 231.005 185.94C234.617 183.887 238.032 180.358 237.66 176.219Z" fill="#E3E3FF"/>
<path d="M154.224 79.0494C153.086 87.9107 152.654 96.856 152.922 105.785C153.191 114.764 154.173 123.722 155.857 132.545C156.798 137.474 157.963 142.358 159.336 147.184C159.473 147.664 160.189 147.36 160.053 146.883C157.613 138.302 155.86 129.526 154.806 120.666C153.759 111.863 153.4 102.979 153.744 94.1201C153.937 89.1114 154.357 84.1122 154.996 79.1401C155.06 78.646 154.288 78.5512 154.224 79.0494Z" fill="#E3E3FF"/>
<path d="M154.292 81.8907C151.859 79.9401 150.102 77.081 149.753 73.9824C149.404 70.8838 150.561 67.5889 152.961 65.5976C155.361 63.6063 158.984 63.1095 161.713 64.6216C162.057 64.8124 162.392 65.0385 162.614 65.362C162.831 65.6788 162.923 66.0646 162.977 66.4436C163.404 69.4448 161.777 72.3363 160.007 74.7973C158.394 77.0391 156.229 79.9198 154.292 81.8907Z" fill="#E3E3FF"/>
<path d="M153.327 94.5384C153.101 91.4276 154 88.1949 156.033 85.8313C158.066 83.4664 161.268 82.0721 164.359 82.4769C167.451 82.8803 170.281 85.1978 171.03 88.2247C171.125 88.6064 171.188 89.0071 171.101 89.3902C171.017 89.7652 170.796 90.0942 170.554 90.392C168.645 92.7474 165.419 93.5217 162.411 93.8994C159.672 94.2419 156.088 94.6155 153.327 94.5384Z" fill="#E3E3FF"/>
<path d="M154.977 128.533C154.781 125.825 155.563 123.012 157.332 120.953C159.102 118.896 161.889 117.681 164.58 118.033C167.271 118.385 169.734 120.401 170.386 123.037C170.469 123.368 170.523 123.717 170.448 124.05C170.375 124.377 170.183 124.662 169.973 124.922C168.312 126.972 165.505 127.647 162.887 127.975C160.5 128.275 157.381 128.6 154.977 128.533Z" fill="#E3E3FF"/>
<path d="M153.847 94.7509C152.098 91.7945 146.97 90.901 144.873 90.3622C142.776 89.8235 140.647 88.7743 139.616 86.8697C138.914 85.5728 138.808 84.0391 138.869 82.5649C138.934 81.0014 139.275 79.2646 140.559 78.3671C142.014 77.3491 144.048 77.8649 145.578 78.7678C148.252 80.3448 150.22 82.9385 151.492 85.7705C152.762 88.6038 153.388 91.6808 153.847 94.7509Z" fill="#E3E3FF"/>
<path d="M153.726 112.905C151.977 109.949 146.849 109.055 144.752 108.517C142.656 107.978 140.526 106.929 139.496 105.024C138.793 103.727 138.688 102.194 138.749 100.719C138.814 99.1559 139.156 97.4191 140.438 96.5216C141.893 95.5036 143.928 96.0193 145.458 96.9222C148.131 98.4993 150.1 101.093 151.372 103.925C152.642 106.757 153.269 109.835 153.726 112.905Z" fill="#E3E3FF"/>
<path d="M155.853 130.796C154.104 127.839 148.976 126.946 146.879 126.407C144.782 125.869 142.653 124.819 141.623 122.915C140.92 121.618 140.815 120.084 140.875 118.61C140.94 117.046 141.282 115.31 142.565 114.412C144.02 113.394 146.055 113.91 147.584 114.813C150.258 116.39 152.226 118.984 153.499 121.816C154.769 124.649 155.395 127.726 155.853 130.796Z" fill="#E3E3FF"/>
<path d="M166.979 101.016C166.034 99.8815 164.374 99.6974 162.9 99.761C161.511 99.8205 160.078 100.041 158.915 100.803C157.206 101.923 156.389 104.006 156.048 106.019C155.75 107.783 155.379 111.751 153.519 113.971C153.618 114.145 153.702 114.325 153.775 114.51C156.237 113.883 158.668 113.104 160.886 111.875C163.447 110.457 165.728 108.402 166.999 105.765C167.726 104.255 168.05 102.303 166.979 101.016Z" fill="#E3E3FF"/>
<path d="M68.2019 133.092C71.6037 145.805 76.0154 158.24 81.372 170.26C86.7584 182.348 93.1032 194.008 100.332 205.093C104.37 211.284 108.687 217.289 113.257 223.101C113.712 223.68 114.517 222.864 114.067 222.291C105.942 211.96 98.6493 200.977 92.2599 189.493C85.911 178.079 80.4556 166.171 75.9721 153.905C73.4366 146.97 71.2139 139.921 69.3065 132.789C69.1156 132.077 68.011 132.378 68.2019 133.092Z" fill="#06005A"/>
<path d="M69.8832 136.927C65.4769 135.627 61.4848 132.714 59.2756 128.686C57.0677 124.657 56.8023 119.52 58.9615 115.464C61.1193 111.408 65.7801 108.706 70.3434 109.241C70.9174 109.309 71.5035 109.429 71.9868 109.746C72.4593 110.056 72.799 110.531 73.086 111.018C75.3453 114.87 74.7443 119.72 73.7074 124.064C72.7611 128.022 71.4196 133.158 69.8832 136.927Z" fill="#06005A"/>
<path d="M75.6364 154.705C73.5896 150.593 73.0089 145.684 74.4573 141.324C75.9071 136.965 79.4918 133.275 83.9319 132.097C88.372 130.919 93.5229 132.495 96.2371 136.203C96.5782 136.67 96.8882 137.18 96.9857 137.751C97.0804 138.309 96.964 138.88 96.8015 139.422C95.5169 143.698 91.5532 146.558 87.6654 148.754C84.1187 150.755 79.443 153.267 75.6364 154.705Z" fill="#06005A"/>
<path d="M96.8883 200.116C95.1068 196.536 94.6005 192.265 95.8622 188.47C97.1238 184.676 100.244 181.465 104.109 180.439C107.974 179.413 112.457 180.786 114.819 184.013C115.117 184.419 115.387 184.864 115.471 185.36C115.553 185.846 115.452 186.342 115.309 186.814C114.191 190.536 110.742 193.024 107.358 194.936C104.271 196.678 100.202 198.864 96.8883 200.116Z" fill="#06005A"/>
<path d="M76.4636 154.705C72.4282 151.653 64.9395 153.301 61.7786 153.74C58.6191 154.179 55.132 153.938 52.6615 151.918C50.9802 150.544 49.9771 148.511 49.2366 146.469C48.4514 144.302 47.9452 141.742 49.1919 139.804C50.6065 137.602 53.6673 137.168 56.2555 137.543C60.781 138.198 64.9138 140.633 68.2304 143.782C71.5497 146.932 74.1231 150.777 76.4636 154.705Z" fill="#06005A"/>
<path d="M86.4485 179.516C82.4131 176.463 74.9245 178.112 71.7636 178.551C68.604 178.989 65.1169 178.748 62.6464 176.728C60.9651 175.354 59.962 173.321 59.2229 171.28C58.4377 169.113 57.9314 166.553 59.1782 164.614C60.5928 162.413 63.6535 161.979 66.2418 162.355C70.7686 163.01 74.9001 165.445 78.218 168.594C81.5346 171.743 84.108 175.587 86.4485 179.516Z" fill="#06005A"/>
<path d="M99.3479 202.713C95.3126 199.66 87.8239 201.309 84.663 201.748C81.5034 202.186 78.0163 201.945 75.5458 199.927C73.8645 198.551 72.8614 196.52 72.1223 194.478C71.3371 192.311 70.8309 189.751 72.0776 187.813C73.4922 185.611 76.5529 185.177 79.1412 185.553C83.668 186.208 87.7995 188.644 91.1174 191.792C94.434 194.94 97.0074 198.783 99.3479 202.713Z" fill="#06005A"/>
<path d="M97.8642 155.903C95.9433 154.885 93.5784 155.562 91.6034 156.472C89.7434 157.329 87.9118 158.432 86.7531 160.12C85.0514 162.6 85.1002 165.896 85.7621 168.831C86.3415 171.402 88.054 177.018 86.7598 181.083C86.9927 181.266 87.2065 181.465 87.4082 181.675C90.4135 179.445 93.2928 177.025 95.6279 174.11C98.3245 170.745 100.286 166.669 100.545 162.363C100.695 159.901 100.045 157.058 97.8642 155.903Z" fill="#06005A"/>
<path d="M105.58 320.019C85.5523 320.45 65.4376 314.233 49.1445 302.578C32.8513 290.924 20.4704 273.896 14.4071 254.803C11.8013 246.598 10.3379 237.803 12.049 229.367C13.7601 220.931 19.0679 212.905 26.9979 209.554C32.7105 207.141 39.3044 207.325 45.2133 209.209C51.1222 211.095 56.4098 214.577 61.1464 218.581C75.1491 230.419 89.8584 252.272 95.8431 269.605C101.828 286.94 105.58 305.482 105.58 320.019Z" fill="#F4BE47"/>
<path d="M30.0424 221.774C34.358 228.581 39.0838 235.115 44.0031 241.496C48.913 247.865 54.0083 254.088 59.0915 260.318C64.2125 266.595 69.3228 272.883 74.2083 279.344C79.0491 285.746 83.5664 292.376 88.2096 298.92C92.8163 305.413 97.5813 311.82 102.968 317.693C103.635 318.422 104.312 319.139 104.998 319.85C105.377 320.242 105.976 319.644 105.597 319.252C100.042 313.501 95.1568 307.159 90.4974 300.675C85.8379 294.19 81.3775 287.565 76.6152 281.156C71.8176 274.698 66.7792 268.427 61.7014 262.189C56.6264 255.954 51.5121 249.751 46.5589 243.418C41.5976 237.076 36.8001 230.599 32.3897 223.859C31.8442 223.025 31.3054 222.188 30.772 221.346C30.481 220.887 29.7486 221.311 30.0424 221.774Z" fill="#06005A"/>
<path d="M38.2147 270.92C44.5839 274.546 50.8867 278.289 57.2518 281.921C63.0511 285.23 68.9248 288.405 74.9501 291.285C78.8352 293.144 82.7758 294.885 86.753 296.538C87.2552 296.746 87.4745 295.929 86.9777 295.722C80.2553 292.926 73.656 289.846 67.2164 286.449C61.3048 283.33 55.5285 279.967 49.7536 276.605C46.058 274.452 42.3597 272.304 38.6425 270.188C38.1687 269.92 37.7409 270.651 38.2147 270.92Z" fill="#06005A"/>
<path d="M64.1016 265.198C61.7935 256.315 60.0323 247.266 58.5893 238.204C58.2116 235.835 57.8637 233.462 57.5673 231.082C57.5009 230.549 56.6535 230.542 56.7212 231.082C57.861 240.228 59.5653 249.325 61.5783 258.317C62.1103 260.695 62.6734 263.065 63.2853 265.423C63.4234 265.95 64.2397 265.726 64.1016 265.198Z" fill="#06005A"/>
<path d="M96.83 330.122C85.4725 339.331 71.0907 344.746 56.4789 345.314C41.8684 345.883 27.109 341.603 15.0691 333.303C9.89529 329.737 5.11672 325.32 2.32945 319.689C-0.457824 314.057 -0.988475 307.055 2.08578 301.574C4.30044 297.625 8.18557 294.781 12.4362 293.225C16.6868 291.669 21.2962 291.311 25.8189 291.502C39.1921 292.064 57.4522 298.086 68.6581 305.405C79.8654 312.723 90.3255 321.737 96.83 330.122Z" fill="#3423C7"/>
<path d="M9.30776 307.258C14.8417 309.253 20.4921 310.906 26.183 312.386C31.8645 313.863 37.5866 315.172 43.306 316.49C49.0673 317.819 54.8287 319.16 60.5373 320.7C66.193 322.227 71.7649 324.029 77.3705 325.725C82.9329 327.408 88.5467 328.971 94.2824 329.949C94.993 330.069 95.7051 330.181 96.4185 330.283C96.8124 330.34 96.8896 329.727 96.4957 329.67C90.7194 328.839 85.065 327.366 79.4756 325.712C73.8875 324.057 68.3508 322.231 62.7357 320.665C57.0799 319.088 51.3673 317.725 45.6479 316.399C39.9312 315.074 34.2064 313.785 28.5168 312.349C22.8177 310.912 17.1525 309.322 11.5942 307.408C10.9065 307.171 10.2215 306.929 9.5379 306.683C9.16563 306.55 8.93279 307.123 9.30776 307.258Z" fill="#B0B0B0"/>
<path d="M36.0108 331.945C41.3065 331.186 46.6157 330.525 51.9114 329.773C56.736 329.086 61.5444 328.289 66.3081 327.255C69.381 326.587 72.4322 325.829 75.4645 325.003C75.8476 324.899 75.608 324.329 75.2289 324.432C70.1011 325.828 64.9178 327.004 59.683 327.926C54.8788 328.772 50.042 329.418 45.2065 330.062C42.112 330.475 39.0188 330.889 35.9283 331.333C35.5371 331.389 35.6169 332.002 36.0108 331.945Z" fill="#B0B0B0"/>
<path d="M48.381 317.063C43.0758 312.972 38.0103 308.541 33.1248 303.96C31.8482 302.764 30.5852 301.549 29.3493 300.311C29.0718 300.033 28.5804 300.408 28.862 300.69C33.6108 305.455 38.6641 309.938 43.8488 314.224C45.2188 315.357 46.6036 316.472 48.0128 317.558C48.3255 317.8 48.6964 317.306 48.381 317.063Z" fill="#B0B0B0"/>
<path d="M428.409 167.887C419.608 177.673 411.594 188.154 404.441 199.2C397.249 210.307 390.937 221.985 385.59 234.09C382.602 240.852 379.924 247.746 377.547 254.746C377.31 255.444 378.433 255.674 378.668 254.983C382.896 242.539 388.121 230.435 394.263 218.815C400.365 207.269 407.371 196.201 415.205 185.752C419.635 179.845 424.33 174.137 429.267 168.645C429.758 168.1 428.903 167.338 428.409 167.887Z" fill="#06005A"/>
<path d="M426.113 171.388C424.798 166.986 425.062 162.05 427.235 158.003C429.406 153.955 433.569 150.93 438.144 150.528C442.721 150.124 447.527 152.557 449.568 156.672C449.826 157.19 450.043 157.747 450.041 158.325C450.039 158.891 449.827 159.434 449.574 159.94C447.578 163.935 443.186 166.076 438.978 167.576C435.145 168.943 430.109 170.621 426.113 171.388Z" fill="#06005A"/>
<path d="M414.349 185.908C416.68 181.95 420.477 178.785 424.921 177.62C429.366 176.458 434.414 177.449 437.824 180.528C441.234 183.607 442.721 188.784 441.095 193.081C440.891 193.623 440.631 194.16 440.206 194.553C439.79 194.936 439.248 195.151 438.705 195.309C434.419 196.566 429.861 194.803 425.9 192.743C422.287 190.864 417.632 188.315 414.349 185.908Z" fill="#06005A"/>
<path d="M387.881 228.49C389.911 225.045 393.215 222.29 397.083 221.277C400.951 220.265 405.344 221.129 408.312 223.808C411.279 226.488 412.574 230.994 411.158 234.733C410.98 235.204 410.755 235.673 410.384 236.014C410.023 236.347 409.55 236.534 409.078 236.673C405.348 237.767 401.381 236.233 397.933 234.438C394.791 232.803 390.739 230.586 387.881 228.49Z" fill="#06005A"/>
<path d="M414.801 186.602C415.157 181.554 409.691 176.178 407.601 173.768C405.509 171.358 403.809 168.304 404.154 165.133C404.39 162.973 405.546 161.024 406.854 159.29C408.241 157.449 410.111 155.63 412.416 155.616C415.031 155.601 417.066 157.93 418.164 160.304C420.083 164.456 420.297 169.247 419.467 173.745C418.636 178.243 416.818 182.497 414.801 186.602Z" fill="#06005A"/>
<path d="M399.453 208.504C399.809 203.456 394.343 198.079 392.253 195.669C390.162 193.26 388.461 190.206 388.806 187.034C389.042 184.875 390.198 182.926 391.505 181.192C392.893 179.351 394.762 177.531 397.068 177.518C399.683 177.503 401.718 179.831 402.816 182.206C404.735 186.356 404.949 191.148 404.118 195.646C403.288 200.145 401.47 204.398 399.453 208.504Z" fill="#06005A"/>
<path d="M387.048 231.968C387.404 226.92 381.937 221.543 379.847 219.133C377.757 216.724 376.055 213.67 376.401 210.498C376.635 208.339 377.792 206.389 379.1 204.655C380.487 202.814 382.357 200.995 384.662 200.981C387.278 200.967 389.312 203.295 390.41 205.669C392.33 209.82 392.544 214.612 391.712 219.11C390.881 223.61 389.063 227.863 387.048 231.968Z" fill="#06005A"/>
<path d="M425.471 205.193C425.276 203.028 423.419 201.414 421.579 200.256C419.846 199.163 417.923 198.231 415.876 198.181C412.868 198.107 410.132 199.947 408.034 202.102C406.196 203.989 402.423 208.489 398.309 209.622C398.282 209.916 398.233 210.204 398.168 210.488C401.677 211.791 405.275 212.884 408.992 213.251C413.285 213.676 417.77 213.097 421.52 210.965C423.664 209.745 425.692 207.65 425.471 205.193Z" fill="#06005A"/>
<path d="M415.251 315.737C417.117 301.235 423.791 287.392 433.975 276.9C444.159 266.407 457.795 259.322 472.235 257.021C478.44 256.032 484.947 255.931 490.851 258.085C496.754 260.237 501.97 264.941 503.526 271.029C504.646 275.415 503.798 280.154 501.794 284.214C499.791 288.273 496.701 291.712 493.297 294.695C483.229 303.516 465.857 311.756 452.697 314.191C439.535 316.625 425.745 317.319 415.251 315.737Z" fill="#3423C7"/>
<path d="M494.376 271.896C488.994 274.271 483.763 276.973 478.623 279.829C473.492 282.68 468.447 285.681 463.396 288.673C458.309 291.686 453.215 294.691 448.02 297.515C442.873 300.313 437.596 302.853 432.368 305.493C427.181 308.112 422.038 310.855 417.213 314.104C416.615 314.506 416.024 314.917 415.436 315.334C415.111 315.566 415.479 316.061 415.803 315.831C420.557 312.447 425.666 309.611 430.853 306.952C436.039 304.293 441.307 301.794 446.452 299.054C451.634 296.294 456.709 293.338 461.764 290.351C466.816 287.367 471.849 284.349 476.959 281.462C482.076 278.57 487.274 275.811 492.617 273.361C493.278 273.058 493.941 272.76 494.606 272.466C494.967 272.311 494.741 271.735 494.376 271.896Z" fill="#B0B0B0"/>
<path d="M458.014 272.453C454.704 276.656 451.319 280.798 448.005 284.998C444.986 288.823 442.055 292.718 439.321 296.753C437.557 299.356 435.871 302.011 434.246 304.701C434.04 305.04 434.607 305.287 434.81 304.951C437.558 300.403 440.5 295.975 443.651 291.696C446.545 287.769 449.601 283.963 452.655 280.161C454.609 277.727 456.563 275.292 458.495 272.839C458.741 272.527 458.26 272.14 458.014 272.453Z" fill="#B0B0B0"/>
<path d="M459.33 291.759C465.993 291.059 472.715 290.771 479.413 290.716C481.164 290.701 482.915 290.708 484.664 290.752C485.057 290.762 485.153 290.151 484.756 290.142C478.031 289.97 471.279 290.211 464.571 290.686C462.798 290.812 461.026 290.959 459.257 291.145C458.86 291.188 458.933 291.801 459.33 291.759Z" fill="#B0B0B0"/>
<path d="M1.35744 371.529C5.47134 371.529 9.58524 371.529 13.7005 371.529C24.7968 371.529 35.8917 371.529 46.988 371.529C63.4382 371.529 79.8898 371.529 96.3399 371.529C116.41 371.529 136.481 371.529 156.551 371.529C178.457 371.529 200.364 371.529 222.269 371.529C244.532 371.529 266.795 371.529 289.057 371.529C309.674 371.529 330.289 371.529 350.906 371.529C368.391 371.529 385.875 371.529 403.36 371.529C415.93 371.529 428.5 371.529 441.072 371.529C447.011 371.529 452.959 371.629 458.898 371.529C459.158 371.525 459.418 371.529 459.678 371.529C461.486 371.529 461.489 368.821 459.678 368.821C455.564 368.821 451.45 368.821 447.335 368.821C436.238 368.821 425.143 368.821 414.047 368.821C397.597 368.821 381.145 368.821 364.695 368.821C344.625 368.821 324.554 368.821 304.484 368.821C282.578 368.821 260.671 368.821 238.766 368.821C216.503 368.821 194.24 368.821 171.978 368.821C151.361 368.821 130.746 368.821 110.129 368.821C92.6443 368.821 75.1599 368.821 57.6755 368.821C45.105 368.821 32.5345 368.821 19.9641 368.821C14.0254 368.821 8.07586 368.721 2.13853 368.821C1.87861 368.826 1.6187 368.821 1.35879 368.821C-0.451107 368.821 -0.453814 371.529 1.35744 371.529Z" fill="#13084A"/>
<path d="M477.31 371.529C481.361 371.529 485.413 371.529 489.465 371.529C495.916 371.529 502.368 371.529 508.82 371.529C510.293 371.529 511.765 371.529 513.238 371.529C514.796 371.529 514.799 368.821 513.238 368.821C509.187 368.821 505.135 368.821 501.083 368.821C494.632 368.821 488.18 368.821 481.728 368.821C480.255 368.821 478.783 368.821 477.31 368.821C475.752 368.821 475.749 371.529 477.31 371.529Z" fill="#13084A"/>
<path d="M462.99 341.486L458.614 340.499L503.531 141.578L405.297 39.0583H365.751V34.5694H407.214L407.874 35.2611L508.439 140.215L462.99 341.486Z" fill="#E3E3FF"/>
<path d="M513.851 140.896C513.851 145.24 510.329 148.762 505.985 148.762C501.64 148.762 498.119 145.24 498.119 140.896C498.119 136.552 501.641 133.03 505.985 133.03C510.329 133.03 513.851 136.552 513.851 140.896Z" fill="#FED362"/>
<path d="M413.198 36.8138C413.198 40.6489 410.09 43.757 406.255 43.757C402.42 43.757 399.312 40.6489 399.312 36.8138C399.312 32.9788 402.42 29.8707 406.255 29.8707C410.09 29.8707 413.198 32.9788 413.198 36.8138Z" fill="#FED362"/>
<path d="M305.62 104.434C297.695 104.434 291.25 97.9876 291.25 90.0658C291.25 82.1426 297.696 75.6976 305.62 75.6976C313.541 75.6976 319.988 82.1439 319.988 90.0658C319.988 97.9876 313.543 104.434 305.62 104.434ZM305.62 77.0499C298.442 77.0499 292.604 82.8884 292.604 90.0644C292.604 97.2404 298.442 103.079 305.62 103.079C312.797 103.079 318.634 97.2404 318.634 90.0644C318.634 82.8884 312.797 77.0499 305.62 77.0499Z" fill="#FFD43E"/>
<path d="M366.694 73.2771C379.636 52.6074 371.722 36.8477 370.831 35.2097L370.857 35.1867C370.857 35.1867 370.83 35.165 370.789 35.1339C370.764 35.0892 370.747 35.0594 370.747 35.0594L370.722 35.0824C369.237 33.9534 354.856 23.7452 332.466 33.4092C310.783 42.7687 292.77 35.433 274.82 41.5017C272.355 42.3356 271.536 45.4274 273.231 47.4011L308.508 88.4914L308.618 88.6186L343.652 129.426C345.464 131.536 348.88 131.182 350.137 128.7C358.626 111.961 354.242 93.163 366.694 73.2771Z" fill="#FED362"/>
<path d="M363.829 56.4939C361.445 60.7364 359.543 65.2375 356.781 69.262C351.648 76.7453 344.472 81.3113 335.39 82.3496C323.517 83.7074 313.401 76.905 303.561 71.2791C296.99 67.5212 290.528 63.5819 283.939 59.8741L308.507 88.4914L308.617 88.6186L343.65 129.426C345.463 131.536 348.878 131.182 350.136 128.7C358.624 111.959 354.24 93.1617 366.692 73.2758C374.258 61.1913 374.692 50.7921 373.573 43.9059C370.979 48.614 366.487 51.7627 363.829 56.4939Z" fill="#F4BE47"/>
<path d="M479.358 337.513H446.683C445.235 337.513 444.06 336.338 444.06 334.89V334.337C444.06 332.889 445.235 331.714 446.683 331.714H479.358C480.806 331.714 481.981 332.889 481.981 334.337V334.89C481.981 336.338 480.806 337.513 479.358 337.513Z" fill="#FED362"/>
<path d="M249.774 339.549L222.504 343.798C219.964 344.194 217.584 342.455 217.189 339.916L188.997 158.976C188.601 156.436 190.34 154.057 192.879 153.661L220.149 149.412C222.689 149.017 225.069 150.755 225.464 153.294L253.655 334.234C254.052 336.773 252.313 339.152 249.774 339.549Z" fill="#4A4193"/>
<path d="M250.387 313.343L213.917 319.024L214.186 320.75L250.656 315.07L250.387 313.343Z" fill="white"/>
<path d="M247.702 296.121L211.233 301.801L211.502 303.528L247.971 297.848L247.702 296.121Z" fill="white"/>
<path d="M231.366 191.233L194.896 196.914L195.165 198.64L231.635 192.96L231.366 191.233Z" fill="white"/>
<path d="M228.684 174.008L192.215 179.689L192.484 181.416L228.953 175.735L228.684 174.008Z" fill="white"/>
<path d="M135.963 337.513H94.4407C91.87 337.513 89.7867 335.43 89.7867 332.859V149.736C89.7867 147.165 91.87 145.082 94.4407 145.082H135.963C138.533 145.082 140.617 147.165 140.617 149.736V332.859C140.618 335.428 138.533 337.513 135.963 337.513Z" fill="#766CFF"/>
<path d="M140.618 311.694H89.7867V313.442H140.618V311.694Z" fill="white"/>
<path d="M140.618 294.262H89.7867V296.01H140.618V294.262Z" fill="white"/>
<path d="M140.618 188.113H89.7867V189.861H140.618V188.113Z" fill="white"/>
<path d="M140.618 170.681H89.7867V172.429H140.618V170.681Z" fill="white"/>
<path d="M116.413 262.745C125.919 262.745 133.625 255.039 133.625 245.533C133.625 236.027 125.919 228.321 116.413 228.321C106.906 228.321 99.2003 236.027 99.2003 245.533C99.2003 255.039 106.906 262.745 116.413 262.745Z" stroke="white" stroke-miterlimit="10"/>
<path opacity="0.67" d="M140.618 149.736L125.289 336.327V337.513H137.153L139.639 335.706L140.529 333.771L140.618 149.736Z" fill="#4949EA"/>
<path d="M292.759 337.513H258.229C255.659 337.513 253.575 335.43 253.575 332.859V149.736C253.575 147.165 255.659 145.082 258.229 145.082H292.759C295.33 145.082 297.413 147.165 297.413 149.736V332.859C297.413 335.428 295.33 337.513 292.759 337.513Z" fill="#766CFF"/>
<path d="M297.413 311.694H253.575V313.442H297.413V311.694Z" fill="white"/>
<path d="M297.413 294.262H253.575V296.01H297.413V294.262Z" fill="white"/>
<path d="M297.413 188.113H253.575V189.861H297.413V188.113Z" fill="white"/>
<path d="M297.413 170.681H253.575V172.429H297.413V170.681Z" fill="white"/>
<path d="M287.03 258.397C292.827 252.6 292.827 243.201 287.03 237.404C281.233 231.607 271.834 231.607 266.037 237.404C260.24 243.201 260.24 252.6 266.037 258.398C271.834 264.195 281.233 264.195 287.03 258.397Z" stroke="white" stroke-miterlimit="10"/>
<path opacity="0.67" d="M297.414 149.736L282.084 336.327V337.513H293.948L296.436 335.706L297.326 333.771L297.414 149.736Z" fill="#4949EA"/>
<path d="M186.794 337.513H145.272C142.702 337.513 140.618 335.43 140.618 332.859V128.355C140.618 125.785 142.702 123.701 145.272 123.701H186.794C189.365 123.701 191.448 125.785 191.448 128.355V332.859C191.448 335.428 189.365 337.513 186.794 337.513Z" fill="#F74E00"/>
<path d="M191.45 308.825H140.618V310.768H191.45V308.825Z" fill="white"/>
<path d="M191.45 289.457H140.618V291.399H191.45V289.457Z" fill="white"/>
<path d="M191.45 171.513H140.618V173.455H191.45V171.513Z" fill="white"/>
<path d="M191.45 152.145H140.618V154.088H191.45V152.145Z" fill="white"/>
<path d="M167.243 254.438C176.749 254.438 184.455 245.875 184.455 235.313C184.455 224.75 176.749 216.188 167.243 216.188C157.737 216.188 150.031 224.75 150.031 235.313C150.031 245.875 157.737 254.438 167.243 254.438Z" stroke="white" stroke-miterlimit="10"/>
<path opacity="0.7" d="M192.121 128.541L166.99 336.193V337.513H186.44L190.517 335.501L191.975 333.349L192.121 128.541Z" fill="#E03F00"/>
<path opacity="0.58" d="M229.365 178.324L244.302 340.4L252.936 337.513L253.655 334.233L229.365 178.324Z" fill="#312D7F"/>
<path d="M356.318 339.175L330.404 342.987C327.861 343.361 325.496 341.603 325.122 339.06L295.361 136.733C294.987 134.19 296.746 131.825 299.288 131.451L325.202 127.639C327.746 127.266 330.111 129.024 330.484 131.566L360.245 333.893C360.62 336.437 358.862 338.802 356.318 339.175Z" fill="#F74E00"/>
<path d="M356.758 310.146L321.634 315.311L321.916 317.233L357.041 312.068L356.758 310.146Z" fill="white"/>
<path d="M353.939 290.985L318.815 296.15L319.097 298.072L354.222 292.907L353.939 290.985Z" fill="white"/>
<path d="M333.961 155.125L298.836 160.291L299.119 162.213L334.243 157.047L333.961 155.125Z" fill="white"/>
<path opacity="0.7" d="M333.269 150.484L343.949 337.513L361.611 339.916L333.269 150.484Z" fill="#E03F00"/>
<path d="M394.198 339.549L366.927 343.798C364.388 344.194 362.008 342.455 361.613 339.916L333.422 158.976C333.027 156.436 334.765 154.057 337.304 153.661L364.575 149.412C367.114 149.017 369.494 150.755 369.889 153.294L398.08 334.234C398.476 336.773 396.737 339.152 394.198 339.549Z" fill="#4A4193"/>
<path d="M394.814 313.349L358.345 319.029L358.614 320.756L395.083 315.076L394.814 313.349Z" fill="white"/>
<path d="M392.13 296.128L355.661 301.808L355.93 303.535L392.399 297.854L392.13 296.128Z" fill="white"/>
<path d="M375.794 191.24L339.325 196.92L339.594 198.647L376.063 192.967L375.794 191.24Z" fill="white"/>
<path d="M373.111 174.015L336.642 179.695L336.911 181.422L373.38 175.741L373.111 174.015Z" fill="white"/>
<path opacity="0.58" d="M374.039 185.431L385.929 339.916H399.332L374.039 185.431Z" fill="#312D7F"/>
<path d="M431.919 339.549L404.648 343.798C402.109 344.193 399.729 342.455 399.332 339.916L376.709 194.707C376.314 192.167 378.052 189.787 380.592 189.392L407.862 185.143C410.402 184.748 412.781 186.486 413.178 189.025L435.801 334.234C436.196 336.772 434.458 339.152 431.919 339.549Z" fill="#766CFF"/>
<path d="M433.282 318.145L396.812 323.826L397.031 325.229L433.501 319.548L433.282 318.145Z" fill="white"/>
<path d="M431.103 304.16L394.634 309.84L394.852 311.243L431.322 305.563L431.103 304.16Z" fill="white"/>
<path d="M417.837 218.981L381.368 224.661L381.586 226.064L418.056 220.384L417.837 218.981Z" fill="white"/>
<path d="M415.658 204.996L379.188 210.677L379.407 212.08L415.876 206.399L415.658 204.996Z" fill="white"/>
<path opacity="0.67" d="M376.709 194.707L416.957 339.916H399.332" fill="#4949EA"/>
<path d="M487.223 360.875H36.1639C29.7121 360.875 24.4828 355.646 24.4828 349.194C24.4828 342.742 29.7121 337.513 36.1639 337.513H487.223C493.675 337.513 498.904 342.742 498.904 349.194C498.905 355.646 493.675 360.875 487.223 360.875Z" fill="#06005A"/>
<path d="M326.376 385.675C326.376 385.675 273.113 354.928 206.719 371.866C206.719 371.866 193.429 375.353 191.662 360.673C191.662 360.673 158.369 295.826 120.102 271.929L132.056 263.023L255.604 226.871C255.604 226.871 305.769 255.958 319.552 293.489C319.552 293.489 403.699 296.042 438.743 313.398L453.998 317.718L326.376 385.675Z" fill="#4A4193"/>
<path d="M123.559 260.539L137.012 250.11C137.012 250.11 193.001 285.222 211.322 341.689C211.322 341.689 278.115 322.961 326.246 349.189L442.034 292.659L442.641 314.389L326.622 374.526C326.622 374.526 281.103 351.203 214.304 359.091C214.304 359.091 202.916 366.222 198.703 353.189C198.703 353.189 169.969 291.004 123.559 260.539Z" fill="#E1DAEA"/>
<path d="M137.012 250.11L264.299 221.548C264.299 221.548 311.936 270.074 319.552 293.489C319.552 293.489 382.473 283.488 442.034 292.659L326.246 349.189C326.246 349.189 290.12 330.443 211.322 341.689C211.322 341.689 172.035 272.428 137.012 250.11Z" fill="#EFE8F7"/>
<path d="M165.618 243.467L155.77 245.717C155.77 245.717 201.393 300.981 211.298 341.743L239.34 315.548" fill="#E1DAEA"/>
<path d="M212.063 339.6C212.063 339.6 199.91 266.697 153.556 234.041L283.917 207.382C283.917 207.382 312.859 237.79 319.553 293.489L212.063 339.6Z" fill="#EFE8F7"/>
<path d="M420.714 290.318L430.845 291.158L329.235 342.415C329.235 342.415 278.892 332.142 247.974 336.693" fill="#E1DAEA"/>
<path d="M211.322 341.689L319.552 293.489C319.552 293.489 395.308 276.726 436.238 286.022L326.969 340.346C326.969 340.346 281.884 328.514 211.322 341.689Z" fill="#EFE8F7"/>
<path d="M211.322 341.689L326.541 292.058L319.553 293.489L212.063 339.6L211.322 341.689Z" fill="#E1DAEA"/>
<path d="M319.245 297.039C325.168 297.28 331.041 296.362 336.881 295.489C339.865 295.042 342.854 294.608 345.862 294.353C348.889 294.096 351.927 294.059 354.963 293.993C361.054 293.859 367.092 293.243 373.149 292.643C379.219 292.041 385.297 291.642 391.398 291.608C398.308 291.57 405.215 291.943 412.08 292.714C412.742 292.788 412.737 291.751 412.08 291.678C399.86 290.305 387.55 290.25 375.311 291.398C369.252 291.966 363.206 292.704 357.118 292.901C354.119 292.997 351.115 292.999 348.116 293.162C345.167 293.321 342.234 293.678 339.31 294.093C332.654 295.039 325.995 296.278 319.243 296.003C318.579 295.975 318.58 297.012 319.245 297.039Z" fill="#E1DAEA"/>
<path d="M310.183 301.766C315.434 301.831 320.681 301.568 325.925 301.329C331.096 301.092 336.259 300.99 341.436 300.952C351.839 300.877 362.23 300.334 372.636 300.32C378.508 300.313 384.382 300.412 390.252 300.615C390.919 300.638 390.918 299.603 390.252 299.58C379.83 299.218 369.399 299.197 358.976 299.493C353.761 299.641 348.547 299.841 343.33 299.9C338.164 299.959 333.006 299.983 327.845 300.208C321.962 300.464 316.077 300.803 310.186 300.732C309.516 300.722 309.516 301.758 310.183 301.766Z" fill="#E1DAEA"/>
<path d="M300.868 307.83C305.859 308.084 310.854 307.952 315.848 307.843C320.834 307.734 325.805 307.786 330.789 307.917C340.736 308.178 350.684 307.883 360.631 308.218C366.252 308.407 371.868 308.724 377.475 309.164C378.14 309.217 378.137 308.18 377.475 308.128C367.534 307.347 357.567 306.968 347.595 306.968C342.628 306.968 337.662 307.03 332.696 306.926C327.716 306.822 322.749 306.674 317.766 306.768C312.134 306.873 306.498 307.08 300.867 306.795C300.202 306.761 300.203 307.797 300.868 307.83Z" fill="#E1DAEA"/>
<path d="M285.004 315.782C289.995 316.035 294.99 315.904 299.984 315.794C304.97 315.686 309.941 315.737 314.925 315.869C324.872 316.13 334.82 315.835 344.767 316.169C350.388 316.359 356.004 316.676 361.611 317.116C362.276 317.168 362.273 316.131 361.611 316.08C351.67 315.299 341.703 314.92 331.731 314.92C326.764 314.92 321.799 314.982 316.832 314.878C311.852 314.774 306.885 314.626 301.902 314.718C296.27 314.824 290.634 315.031 285.003 314.745C284.338 314.713 284.341 315.748 285.004 315.782Z" fill="#E1DAEA"/>
<path d="M263.648 324.86C268.639 325.113 273.634 324.982 278.628 324.872C283.614 324.764 288.585 324.815 293.569 324.947C303.516 325.208 313.464 324.913 323.411 325.247C329.032 325.437 334.648 325.753 340.255 326.193C340.92 326.246 340.917 325.209 340.255 325.158C330.314 324.377 320.347 323.998 310.375 323.998C305.408 323.998 300.442 324.06 295.476 323.956C290.496 323.851 285.529 323.704 280.546 323.797C274.914 323.903 269.278 324.11 263.647 323.824C262.982 323.789 262.983 324.826 263.648 324.86Z" fill="#E1DAEA"/>
<path d="M246.701 331.603C251.692 331.856 256.687 331.725 261.681 331.615C266.667 331.507 271.638 331.558 276.622 331.689C286.569 331.951 296.517 331.656 306.464 331.99C312.085 332.179 317.701 332.496 323.308 332.936C323.973 332.989 323.97 331.952 323.308 331.901C313.367 331.12 303.4 330.74 293.428 330.74C288.463 330.74 283.496 330.803 278.529 330.699C273.549 330.594 268.582 330.447 263.601 330.54C257.968 330.646 252.332 330.853 246.701 330.567C246.035 330.533 246.036 331.569 246.701 331.603Z" fill="#E1DAEA"/>
<path d="M311.285 287.922C308.512 283.701 306.761 278.928 304.985 274.202C304.076 271.785 303.157 269.374 302.074 267.038C300.984 264.688 299.701 262.441 298.445 260.181C295.924 255.648 293.84 250.907 291.735 246.16C289.626 241.403 287.338 236.743 284.725 232.252C281.767 227.166 278.455 222.291 274.819 217.649C274.468 217.203 275.363 216.679 275.711 217.123C282.183 225.385 287.56 234.384 291.87 243.941C294.003 248.672 295.985 253.481 298.452 258.044C299.667 260.292 300.966 262.496 302.123 264.777C303.263 267.022 304.225 269.353 305.134 271.707C307.201 277.068 309.016 282.581 312.176 287.394C312.488 287.87 311.596 288.395 311.285 287.922Z" fill="#E1DAEA"/>
<path d="M302.798 291.736C300.026 287.515 298.274 282.742 296.498 278.016C295.59 275.601 294.671 273.189 293.588 270.853C292.498 268.503 291.215 266.255 289.959 263.996C287.438 259.463 285.353 254.722 283.248 249.974C281.139 245.218 278.851 240.558 276.239 236.067C273.281 230.981 269.968 226.106 266.332 221.464C265.982 221.017 266.877 220.494 267.225 220.938C273.697 229.199 279.073 238.199 283.385 247.757C285.518 252.488 287.5 257.297 289.967 261.86C291.182 264.108 292.481 266.312 293.638 268.593C294.778 270.838 295.74 273.169 296.649 275.523C298.716 280.885 300.531 286.397 303.691 291.21C304.002 291.685 303.11 292.21 302.798 291.736Z" fill="#E1DAEA"/>
<path d="M292.306 295.439C289.534 291.218 287.782 286.445 286.006 281.719C285.098 279.302 284.178 276.892 283.095 274.555C282.006 272.205 280.722 269.958 279.466 267.699C276.946 263.165 274.861 258.424 272.756 253.678C270.647 248.921 268.359 244.262 265.746 239.77C262.789 234.684 259.476 229.81 255.84 225.168C255.489 224.721 256.384 224.197 256.732 224.641C263.204 232.903 268.581 241.902 272.893 251.46C275.026 256.191 277.008 260.999 279.474 265.562C280.69 267.811 281.988 270.015 283.146 272.296C284.285 274.54 285.248 276.871 286.156 279.225C288.223 284.586 290.039 290.1 293.198 294.912C293.511 295.387 292.617 295.912 292.306 295.439Z" fill="#E1DAEA"/>
<path d="M282.144 299.86C279.371 295.639 277.619 290.866 275.843 286.14C274.935 283.724 274.016 281.313 272.933 278.976C271.843 276.626 270.56 274.379 269.304 272.12C266.783 267.586 264.698 262.846 262.593 258.098C260.484 253.341 258.197 248.682 255.584 244.19C252.626 239.104 249.314 234.23 245.678 229.588C245.327 229.141 246.222 228.617 246.57 229.061C253.042 237.323 258.419 246.322 262.73 255.881C264.864 260.612 266.845 265.42 269.312 269.984C270.527 272.232 271.826 274.436 272.983 276.717C274.123 278.961 275.085 281.292 275.994 283.647C278.061 289.009 279.876 294.521 283.036 299.333C283.347 299.808 282.455 300.335 282.144 299.86Z" fill="#E1DAEA"/>
<path d="M269.603 302.701C266.831 298.48 265.079 293.707 263.303 288.981C262.395 286.566 261.475 284.154 260.392 281.818C259.303 279.468 258.019 277.22 256.763 274.961C254.243 270.428 252.158 265.687 250.053 260.94C247.944 256.183 245.656 251.523 243.043 247.032C240.086 241.946 236.773 237.071 233.137 232.429C232.786 231.982 233.681 231.459 234.029 231.903C240.501 240.164 245.878 249.164 250.19 258.722C252.323 263.453 254.305 268.262 256.771 272.825C257.987 275.074 259.285 277.277 260.443 279.558C261.582 281.803 262.545 284.134 263.453 286.488C265.52 291.85 267.336 297.362 270.495 302.175C270.806 302.65 269.914 303.175 269.603 302.701Z" fill="#E1DAEA"/>
<path d="M256.318 306.279C253.545 302.058 251.794 297.285 250.017 292.559C249.109 290.143 248.19 287.732 247.107 285.395C246.017 283.045 244.734 280.8 243.478 278.539C240.957 274.005 238.872 269.265 236.767 264.519C234.658 259.762 232.371 255.102 229.758 250.611C226.8 245.525 223.488 240.65 219.852 236.008C219.501 235.562 220.396 235.038 220.744 235.482C227.216 243.743 232.593 252.743 236.903 262.3C239.036 267.031 241.018 271.84 243.485 276.403C244.7 278.651 245.998 280.855 247.157 283.136C248.297 285.381 249.259 287.712 250.168 290.066C252.235 295.426 254.05 300.94 257.21 305.751C257.522 306.228 256.629 306.753 256.318 306.279Z" fill="#E1DAEA"/>
<path d="M245.513 314.761C242.518 310.163 240.544 305.016 238.549 299.917C237.53 297.311 236.497 294.708 235.3 292.18C234.097 289.637 232.698 287.197 231.328 284.744C228.579 279.822 226.267 274.697 223.933 269.564C221.595 264.42 219.079 259.373 216.237 254.493C213.02 248.967 209.447 243.651 205.553 238.572C205.178 238.082 206.072 237.56 206.445 238.046C213.377 247.087 219.217 256.87 223.989 267.209C226.351 272.326 228.56 277.521 231.255 282.472C232.583 284.912 233.995 287.307 235.266 289.779C236.517 292.211 237.591 294.729 238.609 297.27C240.926 303.056 242.992 308.993 246.406 314.236C246.742 314.752 245.848 315.277 245.513 314.761Z" fill="#E1DAEA"/>
<path d="M228.394 319.758C225.3 314.993 223.231 309.681 221.138 304.419C220.068 301.729 218.987 299.042 217.74 296.431C216.486 293.803 215.038 291.277 213.617 288.739C210.766 283.646 208.353 278.352 205.921 273.048C203.483 267.735 200.866 262.517 197.923 257.466C194.59 251.746 190.904 246.237 186.896 240.964C186.51 240.457 187.405 239.934 187.788 240.438C194.922 249.822 200.966 259.95 205.941 270.632C208.403 275.92 210.713 281.283 213.508 286.405C214.886 288.93 216.348 291.409 217.668 293.964C218.968 296.48 220.09 299.08 221.155 301.702C223.582 307.675 225.759 313.799 229.286 319.23C229.634 319.767 228.741 320.293 228.394 319.758Z" fill="#E1DAEA"/>
<path d="M324.321 362.678C279.3 342.099 217.81 350.777 217.194 350.867L216.998 349.527C217.617 349.438 279.504 340.704 324.883 361.446L324.321 362.678Z" fill="#CEC6DB"/>
<path d="M320.313 292.887C320.313 292.887 286.527 307.657 249.295 323.629C212.063 339.6 206.017 353.242 191.448 376.604L200.595 373.197L203.894 378.063C203.894 378.063 215.898 353.549 229.366 345.363C242.834 337.179 339.329 289.722 339.329 289.722L320.313 292.887Z" fill="#F4BE47"/>
</svg>
